<?xml version="1.0" encoding="utf-8"?>
<svg version="1.1"
	 id="Livello_1" xmlns:cc="http://creativecommons.org/ns#" xmlns:dc="http://purl.org/dc/elements/1.1/" xmlns:rdf="http://www.w3.org/1999/02/22-rdf-syntax-ns#"
	 xmlns="http://www.w3.org/2000/svg" xmlns:xlink="http://www.w3.org/1999/xlink" x="0px" y="0px" viewBox="0 0 740 280"
	 style="enable-background:new 0 0 740 280;" xml:space="preserve">
<style type="text/css">
	.st0{fill:#FF6635;}
	.st1{fill:#357EC0;}
	.st2{fill:#C8C8C8;}
</style>
<g>
	<path class="st0" d="M161.8,50.6h-19v39h-8.6v-39h-19.1V42h46.7V50.6z"/>
	<path class="st0" d="M175.9,46.3h-8.6v-7.8h8.6V46.3z M175.9,89.6h-8.6V53.7h8.6V89.6z"/>
	<path class="st0" d="M216.2,89.6h-8.6V65.8c0-1.1-0.3-2-0.9-2.6c-0.6-0.6-1.5-0.9-2.7-0.9h-11.2v27.3h-8.6V58
		c0-0.6,0.1-1.2,0.3-1.7c0.2-0.5,0.5-1,0.9-1.4c0.4-0.4,0.9-0.7,1.4-0.9c0.5-0.2,1.1-0.3,1.7-0.3h15.6c1.2,0,2.5,0.2,3.9,0.6
		c1.4,0.4,2.7,1.1,3.9,2v-2.7h11.7c0.8,0,1.7,0.1,2.6,0.3c0.9,0.2,1.8,0.5,2.7,0.9s1.8,0.9,2.6,1.5c0.8,0.6,1.5,1.4,2.2,2.3
		c0.6,0.9,1.1,1.9,1.5,3.1c0.4,1.2,0.6,2.5,0.6,4v23.8H227V65.8c0-1.1-0.3-2-0.8-2.6c-0.6-0.6-1.4-0.9-2.6-0.9h-7.8
		c0.3,1.1,0.4,2.2,0.4,3.5V89.6z"/>
	<path class="st0" d="M282.2,65.6c0,1.2-0.2,2.5-0.6,3.9c-0.4,1.4-1.1,2.7-2,3.9c-0.9,1.2-2.2,2.2-3.7,3c-1.5,0.8-3.4,1.2-5.5,1.2
		h-15.6v-8.2h15.6c1.2,0,2.1-0.4,2.7-1.1c0.6-0.7,1-1.6,1-2.7c0-1.1-0.4-2-1.1-2.7c-0.7-0.6-1.6-1-2.6-1h-15.6
		c-1.2,0-2.1,0.4-2.7,1.1c-0.6,0.7-1,1.6-1,2.7v12.1c0,1.2,0.4,2,1.1,2.7c0.7,0.6,1.6,1,2.7,1h15.5v8.2h-15.6
		c-1.2,0-2.5-0.2-3.9-0.6c-1.4-0.4-2.7-1.1-3.9-2c-1.2-0.9-2.2-2.2-3-3.7c-0.8-1.5-1.2-3.4-1.2-5.5V65.6c0-1.2,0.2-2.5,0.6-3.9
		c0.4-1.4,1.1-2.7,2-3.9c0.9-1.2,2.2-2.2,3.7-3c1.5-0.8,3.4-1.2,5.5-1.2h15.6c1.2,0,2.5,0.2,3.9,0.6c1.4,0.4,2.7,1.1,3.9,2
		c1.2,0.9,2.2,2.2,3,3.7C281.8,61.5,282.2,63.4,282.2,65.6z"/>
	<path class="st0" d="M303.8,89.6h-3.9c-1.2,0-2.6-0.2-4-0.6c-1.4-0.4-2.7-1.1-3.9-2.1c-1.2-1-2.2-2.2-3-3.8
		c-0.8-1.5-1.2-3.4-1.2-5.7V38.5h8.6v38.9c0,1.1,0.3,1.9,1,2.5s1.5,0.9,2.5,0.9h3.9V89.6z"/>
	<path class="st0" d="M348,65.6c0,1.2-0.2,2.5-0.6,3.9c-0.4,1.4-1.1,2.7-2,3.9c-0.9,1.2-2.2,2.2-3.7,3c-1.5,0.8-3.4,1.2-5.5,1.2
		h-15.6v-8.2h15.6c1.2,0,2.1-0.4,2.7-1.1c0.6-0.7,1-1.6,1-2.7c0-1.1-0.4-2-1.1-2.7c-0.7-0.6-1.6-1-2.6-1h-15.6
		c-1.2,0-2.1,0.4-2.7,1.1c-0.6,0.7-1,1.6-1,2.7v12.1c0,1.2,0.4,2,1.1,2.7c0.7,0.6,1.6,1,2.7,1h15.5v8.2h-15.6
		c-1.2,0-2.5-0.2-3.9-0.6c-1.4-0.4-2.7-1.1-3.9-2c-1.2-0.9-2.2-2.2-3-3.7c-0.8-1.5-1.2-3.4-1.2-5.5V65.6c0-1.2,0.2-2.5,0.6-3.9
		c0.4-1.4,1.1-2.7,2-3.9c0.9-1.2,2.2-2.2,3.7-3c1.5-0.8,3.4-1.2,5.5-1.2h15.6c1.2,0,2.5,0.2,3.9,0.6c1.4,0.4,2.7,1.1,3.9,2
		c1.2,0.9,2.2,2.2,3,3.7C347.6,61.5,348,63.4,348,65.6z"/>
	<path class="st0" d="M388.5,77.4c0,1.5-0.2,2.8-0.6,4c-0.4,1.2-0.9,2.2-1.5,3.1c-0.6,0.9-1.3,1.7-2.2,2.3c-0.8,0.6-1.7,1.1-2.6,1.5
		s-1.8,0.7-2.7,0.9c-0.9,0.2-1.8,0.3-2.6,0.3H353v-8.6h23.3c1.2,0,2.1-0.3,2.7-0.9s0.9-1.5,0.9-2.6c-0.1-2.3-1.3-3.5-3.5-3.5H363
		c-1.9,0-3.5-0.3-4.8-1s-2.4-1.5-3.2-2.5s-1.4-2.1-1.8-3.2c-0.4-1.2-0.5-2.2-0.5-3.2c0-1.9,0.3-3.5,1-4.9c0.7-1.3,1.5-2.4,2.6-3.2
		c1-0.8,2.2-1.4,3.4-1.8c1.2-0.4,2.4-0.5,3.4-0.5h21.2v8.6H363c-0.4,0-0.8,0-1,0.1c-0.3,0.1-0.4,0.2-0.6,0.4
		c-0.1,0.2-0.2,0.3-0.2,0.5c0,0.2,0,0.4,0,0.5c0,0.4,0.1,0.6,0.2,0.8c0.1,0.2,0.2,0.3,0.4,0.4c0.2,0.1,0.4,0.1,0.6,0.1
		c0.2,0,0.4,0,0.6,0h13.4c2.2,0,4.1,0.4,5.6,1.2c1.5,0.8,2.8,1.8,3.8,3c1,1.2,1.6,2.5,2.1,3.9C388.2,74.9,388.5,76.2,388.5,77.4z"/>
	<path class="st0" d="M429.2,77.4c0,1.5-0.2,2.8-0.6,4c-0.4,1.2-0.9,2.2-1.5,3.1c-0.6,0.9-1.3,1.7-2.2,2.3c-0.8,0.6-1.7,1.1-2.6,1.5
		s-1.8,0.7-2.7,0.9c-0.9,0.2-1.8,0.3-2.6,0.3h-23.4v-8.6H417c1.2,0,2.1-0.3,2.7-0.9s0.9-1.5,0.9-2.6c-0.1-2.3-1.3-3.5-3.5-3.5h-13.4
		c-1.9,0-3.5-0.3-4.8-1s-2.4-1.5-3.2-2.5s-1.4-2.1-1.8-3.2c-0.4-1.2-0.5-2.2-0.5-3.2c0-1.9,0.3-3.5,1-4.9c0.7-1.3,1.5-2.4,2.6-3.2
		c1-0.8,2.2-1.4,3.4-1.8c1.2-0.4,2.4-0.5,3.4-0.5h21.2v8.6h-21.2c-0.4,0-0.8,0-1,0.1c-0.3,0.1-0.4,0.2-0.6,0.4
		c-0.1,0.2-0.2,0.3-0.2,0.5c0,0.2,0,0.4,0,0.5c0,0.4,0.1,0.6,0.2,0.8c0.1,0.2,0.2,0.3,0.4,0.4c0.2,0.1,0.4,0.1,0.6,0.1
		c0.2,0,0.4,0,0.6,0h13.4c2.2,0,4.1,0.4,5.6,1.2c1.5,0.8,2.8,1.8,3.8,3c1,1.2,1.6,2.5,2.1,3.9C429,74.9,429.2,76.2,429.2,77.4z"/>
	<path class="st1" d="M500.6,50.6h-19v39H473v-39h-19.1V42h46.7V50.6z"/>
	<path class="st1" d="M540.8,65.6c0,1.2-0.2,2.5-0.6,3.9c-0.4,1.4-1.1,2.7-2,3.9c-0.9,1.2-2.2,2.2-3.7,3c-1.5,0.8-3.4,1.2-5.5,1.2
		h-15.6v-8.2h15.6c1.2,0,2.1-0.4,2.7-1.1c0.6-0.7,1-1.6,1-2.7c0-1.1-0.4-2-1.1-2.7c-0.7-0.6-1.6-1-2.6-1h-15.6
		c-1.2,0-2.1,0.4-2.7,1.1c-0.6,0.7-1,1.6-1,2.7v12.1c0,1.2,0.4,2,1.1,2.7c0.7,0.6,1.6,1,2.7,1h15.5v8.2h-15.6
		c-1.2,0-2.5-0.2-3.9-0.6c-1.4-0.4-2.7-1.1-3.9-2c-1.2-0.9-2.2-2.2-3-3.7c-0.8-1.5-1.2-3.4-1.2-5.5V65.6c0-1.2,0.2-2.5,0.6-3.9
		c0.4-1.4,1.1-2.7,2-3.9c0.9-1.2,2.2-2.2,3.7-3c1.5-0.8,3.4-1.2,5.5-1.2h15.6c1.2,0,2.5,0.2,3.9,0.6c1.4,0.4,2.7,1.1,3.9,2
		c1.2,0.9,2.2,2.2,3,3.7C540.4,61.5,540.8,63.4,540.8,65.6z"/>
	<path class="st1" d="M586.3,53.7l-15.5,16.9l17.5,19h-11.9L564.8,77l-11.5,12.5h-11.9l17.4-19l-15.4-16.9h11.8l9.5,10.4l9.6-10.4
		H586.3z"/>
	<path class="st1" d="M625.2,62.3h-15.1v27.3h-8.7V62.3h-11.2v-8.6h11.2V42h8.7v11.7h15.1V62.3z"/>
</g>
<g>
	<path class="st2" d="M61.2,122.3h3.1v7.4h0.1l6.2-7.4h3.4l-5.3,6.4l6.2,10h-3.4l-4.7-7.7l-2.5,2.9v4.8h-3.1V122.3z"/>
	<path class="st2" d="M75.6,132.5c0-1,0.2-1.9,0.5-2.7c0.3-0.8,0.8-1.5,1.3-2c0.6-0.5,1.2-1,1.9-1.3c0.7-0.3,1.5-0.5,2.2-0.5
		c0.9,0,1.7,0.1,2.3,0.4c0.7,0.3,1.2,0.7,1.7,1.2c0.5,0.5,0.8,1.1,1,1.9c0.2,0.7,0.3,1.5,0.3,2.4c0,0.6,0,1-0.1,1.4h-8.3
		c0.1,1.1,0.6,2,1.2,2.6c0.7,0.6,1.6,0.9,2.6,0.9c0.6,0,1.1-0.1,1.6-0.2c0.5-0.2,1-0.4,1.4-0.7l1,1.8c-0.6,0.4-1.3,0.7-2.1,0.9
		s-1.6,0.4-2.4,0.4c-0.9,0-1.7-0.1-2.5-0.4c-0.8-0.3-1.5-0.7-2-1.3c-0.6-0.6-1-1.2-1.4-2C75.8,134.4,75.6,133.5,75.6,132.5z
		 M84.3,131.4c0-1-0.2-1.8-0.6-2.3c-0.4-0.6-1.1-0.8-2-0.8c-0.8,0-1.5,0.3-2,0.8c-0.6,0.5-0.9,1.3-1.1,2.3H84.3z"/>
	<path class="st2" d="M89,132.5c0-1,0.2-1.9,0.5-2.7c0.3-0.8,0.8-1.5,1.3-2c0.6-0.5,1.2-1,1.9-1.3c0.7-0.3,1.5-0.5,2.2-0.5
		c0.9,0,1.7,0.1,2.3,0.4c0.7,0.3,1.2,0.7,1.7,1.2c0.5,0.5,0.8,1.1,1,1.9c0.2,0.7,0.3,1.5,0.3,2.4c0,0.6,0,1-0.1,1.4H92
		c0.1,1.1,0.6,2,1.2,2.6c0.7,0.6,1.6,0.9,2.6,0.9c0.6,0,1.1-0.1,1.6-0.2c0.5-0.2,1-0.4,1.4-0.7l1,1.8c-0.6,0.4-1.3,0.7-2.1,0.9
		s-1.6,0.4-2.4,0.4c-0.9,0-1.7-0.1-2.5-0.4c-0.8-0.3-1.5-0.7-2-1.3c-0.6-0.6-1-1.2-1.4-2C89.2,134.4,89,133.5,89,132.5z M97.7,131.4
		c0-1-0.2-1.8-0.6-2.3c-0.4-0.6-1.1-0.8-2-0.8c-0.8,0-1.5,0.3-2,0.8c-0.6,0.5-0.9,1.3-1.1,2.3H97.7z"/>
	<path class="st2" d="M106.4,139.6v3.9h-3v-17.1h2.5l0.2,1.3h0.1c0.5-0.4,1.2-0.8,1.8-1.1c0.7-0.3,1.4-0.5,2.1-0.5
		c0.8,0,1.5,0.1,2.2,0.4c0.6,0.3,1.2,0.7,1.6,1.3c0.4,0.5,0.8,1.2,1,2s0.3,1.6,0.3,2.6c0,1.1-0.2,2-0.5,2.8
		c-0.3,0.8-0.7,1.5-1.2,2.1c-0.5,0.6-1.1,1-1.8,1.3c-0.7,0.3-1.4,0.4-2.1,0.4c-0.6,0-1.1-0.1-1.7-0.3c-0.6-0.2-1.1-0.6-1.6-1
		L106.4,139.6z M106.4,135.5c0.5,0.4,0.9,0.6,1.4,0.8c0.4,0.1,0.9,0.2,1.2,0.2c0.9,0,1.6-0.4,2.2-1.1c0.6-0.7,0.9-1.8,0.9-3.2
		c0-1.2-0.2-2.2-0.7-2.9c-0.4-0.7-1.2-1-2.1-1c-0.9,0-1.9,0.5-2.9,1.4V135.5z"/>
	<path class="st2" d="M129.1,128.6h-1.9v-2.1l2-0.1l0.4-3.4h2.5v3.4h3.3v2.3h-3.3v5.9c0,1.4,0.6,2.1,1.8,2.1c0.2,0,0.5,0,0.7-0.1
		c0.2,0,0.5-0.1,0.6-0.2l0.5,2.1c-0.4,0.1-0.8,0.2-1.2,0.3c-0.5,0.1-0.9,0.1-1.4,0.1c-0.8,0-1.4-0.1-1.9-0.3s-0.9-0.5-1.3-0.9
		c-0.3-0.4-0.6-0.9-0.7-1.4c-0.2-0.5-0.2-1.1-0.2-1.8V128.6z"/>
	<path class="st2" d="M137.1,132.5c0-1,0.2-1.9,0.5-2.7c0.3-0.8,0.8-1.5,1.3-2c0.6-0.5,1.2-1,1.9-1.3c0.7-0.3,1.5-0.5,2.2-0.5
		c0.9,0,1.7,0.1,2.3,0.4c0.7,0.3,1.2,0.7,1.7,1.2c0.5,0.5,0.8,1.1,1,1.9c0.2,0.7,0.3,1.5,0.3,2.4c0,0.6,0,1-0.1,1.4H140
		c0.1,1.1,0.6,2,1.2,2.6c0.7,0.6,1.6,0.9,2.6,0.9c0.6,0,1.1-0.1,1.6-0.2c0.5-0.2,1-0.4,1.4-0.7l1,1.8c-0.6,0.4-1.3,0.7-2.1,0.9
		s-1.6,0.4-2.4,0.4c-0.9,0-1.7-0.1-2.5-0.4c-0.8-0.3-1.5-0.7-2-1.3c-0.6-0.6-1-1.2-1.4-2C137.2,134.4,137.1,133.5,137.1,132.5z
		 M145.8,131.4c0-1-0.2-1.8-0.6-2.3c-0.4-0.6-1.1-0.8-2-0.8c-0.8,0-1.5,0.3-2,0.8c-0.6,0.5-0.9,1.3-1.1,2.3H145.8z"/>
	<path class="st2" d="M153.6,132.2l-3.9-5.9h3.3l1.5,2.3c0.2,0.3,0.4,0.7,0.6,1c0.2,0.4,0.4,0.7,0.6,1h0.1c0.2-0.3,0.3-0.7,0.5-1
		c0.2-0.4,0.3-0.7,0.5-1l1.2-2.3h3.2l-3.8,6.2l4.1,6.1h-3.3l-1.6-2.4c-0.2-0.4-0.4-0.7-0.6-1.1c-0.2-0.4-0.4-0.7-0.7-1.1h-0.1
		c-0.2,0.4-0.4,0.7-0.6,1.1c-0.2,0.4-0.4,0.7-0.6,1.1l-1.4,2.4h-3.2L153.6,132.2z"/>
	<path class="st2" d="M164.2,128.6h-1.9v-2.1l2-0.1l0.4-3.4h2.5v3.4h3.3v2.3h-3.3v5.9c0,1.4,0.6,2.1,1.8,2.1c0.2,0,0.5,0,0.7-0.1
		c0.2,0,0.5-0.1,0.6-0.2l0.5,2.1c-0.4,0.1-0.8,0.2-1.2,0.3c-0.5,0.1-0.9,0.1-1.4,0.1c-0.8,0-1.4-0.1-1.9-0.3s-0.9-0.5-1.3-0.9
		c-0.3-0.4-0.6-0.9-0.7-1.4c-0.2-0.5-0.2-1.1-0.2-1.8V128.6z"/>
	<path class="st2" d="M173.5,135.4c0.6,0.4,1.2,0.8,1.7,1c0.6,0.2,1.2,0.4,1.9,0.4c0.7,0,1.2-0.1,1.6-0.4s0.5-0.6,0.5-1.1
		c0-0.2-0.1-0.5-0.2-0.7c-0.2-0.2-0.4-0.4-0.6-0.5c-0.3-0.1-0.6-0.3-0.9-0.4c-0.3-0.1-0.7-0.3-1-0.4c-0.4-0.1-0.9-0.3-1.3-0.5
		c-0.4-0.2-0.8-0.4-1.2-0.7c-0.3-0.3-0.6-0.6-0.8-1c-0.2-0.4-0.3-0.8-0.3-1.3c0-1.1,0.4-2,1.3-2.6c0.8-0.7,2-1,3.5-1
		c0.9,0,1.7,0.2,2.4,0.5c0.7,0.3,1.4,0.6,1.9,1l-1.4,1.8c-0.5-0.3-0.9-0.6-1.4-0.8c-0.5-0.2-1-0.3-1.5-0.3c-0.7,0-1.1,0.1-1.4,0.4
		c-0.3,0.3-0.5,0.6-0.5,1c0,0.2,0.1,0.5,0.2,0.6c0.1,0.2,0.3,0.3,0.6,0.5c0.2,0.1,0.5,0.3,0.9,0.4c0.3,0.1,0.7,0.2,1,0.4
		c0.4,0.1,0.9,0.3,1.3,0.5c0.4,0.2,0.8,0.4,1.2,0.7c0.4,0.3,0.7,0.6,0.9,1c0.2,0.4,0.3,0.9,0.3,1.5c0,0.5-0.1,1-0.3,1.5
		c-0.2,0.5-0.5,0.9-1,1.2c-0.4,0.3-1,0.6-1.6,0.8c-0.6,0.2-1.4,0.3-2.2,0.3c-0.9,0-1.8-0.2-2.7-0.5s-1.6-0.7-2.3-1.2L173.5,135.4z"
		/>
	<path class="st2" d="M195.1,121h3v14.6c0,0.4,0.1,0.6,0.2,0.7c0.1,0.1,0.3,0.2,0.5,0.2c0.1,0,0.1,0,0.2,0c0.1,0,0.2,0,0.3-0.1
		l0.4,2.1c-0.4,0.2-0.9,0.2-1.6,0.2c-1.1,0-1.9-0.3-2.3-0.9c-0.4-0.6-0.7-1.5-0.7-2.5V121z"/>
	<path class="st2" d="M203.8,124.2c-0.5,0-1-0.2-1.4-0.5c-0.4-0.3-0.5-0.7-0.5-1.2s0.2-0.9,0.5-1.2c0.4-0.3,0.8-0.5,1.4-0.5
		c0.5,0,1,0.2,1.4,0.5c0.4,0.3,0.5,0.7,0.5,1.2s-0.2,0.9-0.5,1.2C204.8,124.1,204.4,124.2,203.8,124.2z M202.3,126.4h3v12.3h-3
		V126.4z"/>
	<path class="st2" d="M209.3,121h3v11h0.1l4.8-5.6h3.3l-4.5,5l4.9,7.3h-3.3l-3.3-5.3l-2,2.2v3.1h-3V121z"/>
	<path class="st2" d="M221.6,132.5c0-1,0.2-1.9,0.5-2.7c0.3-0.8,0.8-1.5,1.3-2c0.6-0.5,1.2-1,1.9-1.3c0.7-0.3,1.5-0.5,2.2-0.5
		c0.9,0,1.7,0.1,2.3,0.4c0.7,0.3,1.2,0.7,1.7,1.2c0.5,0.5,0.8,1.1,1,1.9c0.2,0.7,0.3,1.5,0.3,2.4c0,0.6,0,1-0.1,1.4h-8.3
		c0.1,1.1,0.6,2,1.2,2.6c0.7,0.6,1.6,0.9,2.6,0.9c0.6,0,1.1-0.1,1.6-0.2c0.5-0.2,1-0.4,1.4-0.7l1,1.8c-0.6,0.4-1.3,0.7-2.1,0.9
		s-1.6,0.4-2.4,0.4c-0.9,0-1.7-0.1-2.5-0.4c-0.8-0.3-1.5-0.7-2-1.3c-0.6-0.6-1-1.2-1.4-2C221.8,134.4,221.6,133.5,221.6,132.5z
		 M230.3,131.4c0-1-0.2-1.8-0.6-2.3c-0.4-0.6-1.1-0.8-2-0.8c-0.8,0-1.5,0.3-2,0.8c-0.6,0.5-0.9,1.3-1.1,2.3H230.3z"/>
	<path class="st2" d="M246.5,124.3l-0.1-2.8h3.1l-0.1,2.8l-0.6,4.6h-1.7L246.5,124.3z M252,124.3l-0.1-2.8h3.1l-0.1,2.8l-0.6,4.6
		h-1.7L252,124.3z"/>
	<path class="st2" d="M257.7,126.4h3.1l1.6,6.4c0.1,0.6,0.3,1.2,0.4,1.8c0.1,0.6,0.2,1.2,0.3,1.8h0.1c0.1-0.6,0.3-1.2,0.4-1.8
		c0.1-0.6,0.3-1.2,0.4-1.8l1.7-6.4h2.8l1.7,6.4c0.2,0.6,0.3,1.2,0.5,1.8c0.1,0.6,0.3,1.2,0.4,1.8h0.1c0.1-0.6,0.2-1.2,0.3-1.8
		s0.2-1.2,0.3-1.8l1.6-6.4h2.9l-3.3,12.3h-3.6l-1.5-5.7c-0.1-0.6-0.3-1.2-0.4-1.7c-0.1-0.6-0.3-1.2-0.4-1.8h-0.1
		c-0.1,0.6-0.2,1.3-0.4,1.8c-0.1,0.6-0.3,1.2-0.4,1.8l-1.5,5.7h-3.5L257.7,126.4z"/>
	<path class="st2" d="M280.4,124.2c-0.5,0-1-0.2-1.4-0.5c-0.4-0.3-0.5-0.7-0.5-1.2s0.2-0.9,0.5-1.2c0.4-0.3,0.8-0.5,1.4-0.5
		c0.5,0,1,0.2,1.4,0.5c0.4,0.3,0.5,0.7,0.5,1.2s-0.2,0.9-0.5,1.2C281.4,124.1,281,124.2,280.4,124.2z M278.9,126.4h3v12.3h-3V126.4z
		"/>
	<path class="st2" d="M286.3,128.6h-1.9v-2.1l2-0.1l0.4-3.4h2.5v3.4h3.3v2.3h-3.3v5.9c0,1.4,0.6,2.1,1.8,2.1c0.2,0,0.5,0,0.7-0.1
		c0.2,0,0.5-0.1,0.6-0.2l0.5,2.1c-0.4,0.1-0.8,0.2-1.2,0.3c-0.5,0.1-0.9,0.1-1.4,0.1c-0.8,0-1.4-0.1-1.9-0.3s-0.9-0.5-1.3-0.9
		c-0.3-0.4-0.6-0.9-0.7-1.4c-0.2-0.5-0.2-1.1-0.2-1.8V128.6z"/>
	<path class="st2" d="M295.4,121h3v4.5l-0.1,2.4c0.5-0.5,1.2-0.9,1.8-1.3c0.7-0.4,1.4-0.6,2.3-0.6c1.4,0,2.4,0.4,3,1.3
		c0.6,0.8,1,2,1,3.6v7.7h-3v-7.3c0-1-0.2-1.7-0.5-2.1c-0.3-0.4-0.8-0.6-1.6-0.6c-0.6,0-1.1,0.1-1.5,0.4c-0.4,0.3-0.9,0.6-1.5,1.1
		v8.6h-3V121z"/>
	<path class="st2" d="M320.5,126.4h2.5l0.2,1.6h0.1c0.6-0.5,1.2-1,1.9-1.4c0.7-0.4,1.5-0.6,2.4-0.6c1.4,0,2.4,0.4,3,1.3
		c0.6,0.8,1,2,1,3.6v7.7h-3v-7.3c0-1-0.2-1.7-0.5-2.1c-0.3-0.4-0.8-0.6-1.6-0.6c-0.6,0-1.1,0.1-1.5,0.4c-0.4,0.3-0.9,0.6-1.5,1.1
		v8.6h-3V126.4z"/>
	<path class="st2" d="M345.9,141.3c0.2,0,0.3,0.1,0.5,0.1c0.7,0,1.2-0.2,1.7-0.6c0.4-0.4,0.7-0.9,0.9-1.5l0.2-0.8l-5.1-12.1h3.1
		l2.3,6c0.2,0.5,0.4,1.1,0.6,1.7c0.2,0.6,0.4,1.2,0.6,1.8h0.1c0.2-0.6,0.3-1.1,0.5-1.7c0.2-0.6,0.3-1.2,0.5-1.7l2-6h2.9l-4.7,12.8
		c-0.3,0.7-0.6,1.3-0.9,1.9c-0.3,0.6-0.7,1-1.1,1.4c-0.4,0.4-0.9,0.7-1.4,0.9c-0.5,0.2-1.2,0.3-1.9,0.3c-0.4,0-0.7,0-0.9-0.1
		c-0.3,0-0.5-0.1-0.8-0.2l0.6-2.2C345.6,141.2,345.7,141.3,345.9,141.3z"/>
	<path class="st2" d="M357.8,132.5c0-1,0.2-1.9,0.5-2.7c0.3-0.8,0.8-1.5,1.3-2c0.6-0.5,1.2-1,1.9-1.3c0.7-0.3,1.5-0.5,2.2-0.5
		c0.9,0,1.7,0.1,2.3,0.4c0.7,0.3,1.2,0.7,1.7,1.2c0.5,0.5,0.8,1.1,1,1.9c0.2,0.7,0.3,1.5,0.3,2.4c0,0.6,0,1-0.1,1.4h-8.3
		c0.1,1.1,0.6,2,1.2,2.6c0.7,0.6,1.6,0.9,2.6,0.9c0.6,0,1.1-0.1,1.6-0.2c0.5-0.2,1-0.4,1.4-0.7l1,1.8c-0.6,0.4-1.3,0.7-2.1,0.9
		s-1.6,0.4-2.4,0.4c-0.9,0-1.7-0.1-2.5-0.4c-0.8-0.3-1.5-0.7-2-1.3c-0.6-0.6-1-1.2-1.4-2C358,134.4,357.8,133.5,357.8,132.5z
		 M366.6,131.4c0-1-0.2-1.8-0.6-2.3c-0.4-0.6-1.1-0.8-2-0.8c-0.8,0-1.5,0.3-2,0.8c-0.6,0.5-0.9,1.3-1.1,2.3H366.6z"/>
	<path class="st2" d="M371.2,135.4c0-1.3,0.6-2.3,1.8-3.1c1.2-0.7,3.2-1.2,5.8-1.5c0-0.3,0-0.6-0.1-0.9c-0.1-0.3-0.2-0.5-0.4-0.8
		s-0.4-0.4-0.7-0.5c-0.3-0.1-0.7-0.2-1.1-0.2c-0.7,0-1.3,0.1-1.9,0.4s-1.2,0.5-1.8,0.9l-1.1-1.9c0.7-0.4,1.5-0.8,2.4-1.1
		c0.9-0.3,1.9-0.5,2.9-0.5c1.6,0,2.9,0.5,3.7,1.4c0.8,0.9,1.2,2.2,1.2,3.9v7.3h-2.5l-0.2-1.4h-0.1c-0.6,0.5-1.2,0.9-1.9,1.2
		c-0.7,0.3-1.4,0.5-2.2,0.5c-1.1,0-2.1-0.3-2.8-1C371.6,137.3,371.2,136.4,371.2,135.4z M374.2,135.1c0,0.5,0.2,0.9,0.5,1.2
		s0.8,0.4,1.3,0.4c0.5,0,1-0.1,1.5-0.3s0.9-0.6,1.4-1v-2.8c-0.9,0.1-1.6,0.2-2.2,0.4c-0.6,0.2-1.1,0.4-1.4,0.6
		c-0.4,0.2-0.6,0.4-0.8,0.7C374.3,134.5,374.2,134.8,374.2,135.1z"/>
	<path class="st2" d="M385.7,126.4h2.5l0.2,2.2h0.1c0.5-0.8,1-1.4,1.7-1.8s1.3-0.6,2-0.6c0.6,0,1.1,0.1,1.5,0.2l-0.5,2.5
		c-0.2-0.1-0.4-0.1-0.6-0.1c-0.2,0-0.4,0-0.7,0c-0.5,0-1.1,0.2-1.6,0.6s-1.1,1-1.5,2v7.5h-3V126.4z"/>
	<path class="st2" d="M395.4,135.4c0.6,0.4,1.2,0.8,1.7,1s1.2,0.4,1.9,0.4c0.7,0,1.2-0.1,1.6-0.4s0.5-0.6,0.5-1.1
		c0-0.2-0.1-0.5-0.2-0.7c-0.2-0.2-0.4-0.4-0.6-0.5c-0.3-0.1-0.6-0.3-0.9-0.4c-0.3-0.1-0.7-0.3-1-0.4c-0.4-0.1-0.9-0.3-1.3-0.5
		c-0.4-0.2-0.8-0.4-1.2-0.7c-0.3-0.3-0.6-0.6-0.8-1c-0.2-0.4-0.3-0.8-0.3-1.3c0-1.1,0.4-2,1.3-2.6c0.8-0.7,2-1,3.5-1
		c0.9,0,1.7,0.2,2.4,0.5c0.7,0.3,1.4,0.6,1.9,1l-1.4,1.8c-0.5-0.3-0.9-0.6-1.4-0.8s-1-0.3-1.5-0.3c-0.7,0-1.1,0.1-1.4,0.4
		c-0.3,0.3-0.5,0.6-0.5,1c0,0.2,0.1,0.5,0.2,0.6c0.2,0.2,0.3,0.3,0.6,0.5c0.2,0.1,0.5,0.3,0.9,0.4c0.3,0.1,0.7,0.2,1,0.4
		c0.4,0.1,0.9,0.3,1.3,0.5c0.4,0.2,0.8,0.4,1.2,0.7c0.4,0.3,0.7,0.6,0.9,1c0.2,0.4,0.3,0.9,0.3,1.5c0,0.5-0.1,1-0.3,1.5
		c-0.2,0.5-0.5,0.9-1,1.2c-0.4,0.3-1,0.6-1.6,0.8c-0.6,0.2-1.4,0.3-2.2,0.3c-0.9,0-1.8-0.2-2.7-0.5c-0.9-0.3-1.6-0.7-2.3-1.2
		L395.4,135.4z"/>
	<path class="st2" d="M416.2,132.5c0-1,0.2-1.9,0.5-2.7c0.3-0.8,0.8-1.5,1.3-2c0.6-0.5,1.2-1,1.9-1.3c0.7-0.3,1.5-0.5,2.2-0.5
		c0.9,0,1.7,0.1,2.3,0.4c0.7,0.3,1.2,0.7,1.7,1.2c0.5,0.5,0.8,1.1,1,1.9c0.2,0.7,0.3,1.5,0.3,2.4c0,0.6,0,1-0.1,1.4h-8.3
		c0.1,1.1,0.6,2,1.2,2.6c0.7,0.6,1.5,0.9,2.6,0.9c0.6,0,1.1-0.1,1.6-0.2c0.5-0.2,1-0.4,1.4-0.7l1,1.8c-0.6,0.4-1.3,0.7-2.1,0.9
		c-0.8,0.2-1.6,0.4-2.4,0.4c-0.9,0-1.7-0.1-2.5-0.4c-0.8-0.3-1.5-0.7-2-1.3c-0.6-0.6-1-1.2-1.4-2
		C416.4,134.4,416.2,133.5,416.2,132.5z M424.9,131.4c0-1-0.2-1.8-0.6-2.3c-0.4-0.6-1.1-0.8-2-0.8c-0.8,0-1.5,0.3-2,0.8
		s-0.9,1.3-1.1,2.3H424.9z"/>
	<path class="st2" d="M432.8,132.2l-3.9-5.9h3.3l1.5,2.3c0.2,0.3,0.4,0.7,0.6,1c0.2,0.4,0.4,0.7,0.6,1h0.1c0.2-0.3,0.3-0.7,0.5-1
		c0.2-0.4,0.3-0.7,0.5-1l1.2-2.3h3.2l-3.8,6.2l4.1,6.1h-3.3l-1.6-2.4c-0.2-0.4-0.4-0.7-0.6-1.1c-0.2-0.4-0.4-0.7-0.7-1.1h-0.1
		c-0.2,0.4-0.4,0.7-0.6,1.1c-0.2,0.4-0.4,0.7-0.6,1.1l-1.4,2.4h-3.2L432.8,132.2z"/>
	<path class="st2" d="M446,139.6v3.9h-3v-17.1h2.5l0.2,1.3h0.1c0.5-0.4,1.2-0.8,1.8-1.1c0.7-0.3,1.4-0.5,2.1-0.5
		c0.8,0,1.5,0.1,2.2,0.4c0.6,0.3,1.2,0.7,1.6,1.3s0.8,1.2,1,2s0.3,1.6,0.3,2.6c0,1.1-0.2,2-0.5,2.8c-0.3,0.8-0.7,1.5-1.2,2.1
		c-0.5,0.6-1.1,1-1.8,1.3c-0.7,0.3-1.4,0.4-2.1,0.4c-0.6,0-1.1-0.1-1.7-0.3c-0.6-0.2-1.1-0.6-1.6-1L446,139.6z M446,135.5
		c0.5,0.4,0.9,0.6,1.4,0.8c0.4,0.1,0.9,0.2,1.2,0.2c0.9,0,1.6-0.4,2.2-1.1c0.6-0.7,0.9-1.8,0.9-3.2c0-1.2-0.2-2.2-0.7-2.9
		s-1.2-1-2.1-1c-0.9,0-1.9,0.5-2.9,1.4V135.5z"/>
	<path class="st2" d="M457,132.5c0-1,0.2-1.9,0.5-2.7c0.3-0.8,0.8-1.5,1.3-2c0.6-0.5,1.2-1,1.9-1.3c0.7-0.3,1.5-0.5,2.2-0.5
		c0.9,0,1.7,0.1,2.3,0.4c0.7,0.3,1.2,0.7,1.7,1.2c0.5,0.5,0.8,1.1,1,1.9c0.2,0.7,0.3,1.5,0.3,2.4c0,0.6,0,1-0.1,1.4H460
		c0.1,1.1,0.6,2,1.2,2.6c0.7,0.6,1.5,0.9,2.6,0.9c0.6,0,1.1-0.1,1.6-0.2c0.5-0.2,1-0.4,1.4-0.7l1,1.8c-0.6,0.4-1.3,0.7-2.1,0.9
		c-0.8,0.2-1.6,0.4-2.4,0.4c-0.9,0-1.7-0.1-2.5-0.4c-0.8-0.3-1.5-0.7-2-1.3c-0.6-0.6-1-1.2-1.4-2C457.2,134.4,457,133.5,457,132.5z
		 M465.7,131.4c0-1-0.2-1.8-0.6-2.3c-0.4-0.6-1.1-0.8-2-0.8c-0.8,0-1.5,0.3-2,0.8s-0.9,1.3-1.1,2.3H465.7z"/>
	<path class="st2" d="M471.3,126.4h2.5l0.2,2.2h0.1c0.5-0.8,1-1.4,1.7-1.8s1.3-0.6,2-0.6c0.6,0,1.1,0.1,1.5,0.2l-0.5,2.5
		c-0.2-0.1-0.4-0.1-0.6-0.1c-0.2,0-0.4,0-0.7,0c-0.5,0-1.1,0.2-1.6,0.6s-1.1,1-1.5,2v7.5h-3V126.4z"/>
	<path class="st2" d="M482.7,124.2c-0.5,0-1-0.2-1.4-0.5s-0.5-0.7-0.5-1.2s0.2-0.9,0.5-1.2s0.8-0.5,1.4-0.5c0.5,0,1,0.2,1.4,0.5
		c0.4,0.3,0.5,0.7,0.5,1.2s-0.2,0.9-0.5,1.2C483.7,124.1,483.3,124.2,482.7,124.2z M481.2,126.4h3v12.3h-3V126.4z"/>
	<path class="st2" d="M487.3,132.5c0-1,0.2-1.9,0.5-2.7c0.3-0.8,0.8-1.5,1.3-2c0.6-0.5,1.2-1,1.9-1.3c0.7-0.3,1.5-0.5,2.2-0.5
		c0.9,0,1.7,0.1,2.3,0.4c0.7,0.3,1.2,0.7,1.7,1.2c0.5,0.5,0.8,1.1,1,1.9c0.2,0.7,0.3,1.5,0.3,2.4c0,0.6,0,1-0.1,1.4h-8.3
		c0.1,1.1,0.6,2,1.2,2.6c0.7,0.6,1.5,0.9,2.6,0.9c0.6,0,1.1-0.1,1.6-0.2c0.5-0.2,1-0.4,1.4-0.7l1,1.8c-0.6,0.4-1.3,0.7-2.1,0.9
		c-0.8,0.2-1.6,0.4-2.4,0.4c-0.9,0-1.7-0.1-2.5-0.4c-0.8-0.3-1.5-0.7-2-1.3c-0.6-0.6-1-1.2-1.4-2
		C487.5,134.4,487.3,133.5,487.3,132.5z M496,131.4c0-1-0.2-1.8-0.6-2.3c-0.4-0.6-1.1-0.8-2-0.8c-0.8,0-1.5,0.3-2,0.8
		s-0.9,1.3-1.1,2.3H496z"/>
	<path class="st2" d="M501.6,126.4h2.5l0.2,1.6h0.1c0.6-0.5,1.2-1,1.9-1.4c0.7-0.4,1.5-0.6,2.4-0.6c1.4,0,2.4,0.4,3,1.3
		c0.6,0.8,1,2,1,3.6v7.7h-3v-7.3c0-1-0.2-1.7-0.5-2.1c-0.3-0.4-0.8-0.6-1.6-0.6c-0.6,0-1.1,0.1-1.5,0.4c-0.4,0.3-0.9,0.6-1.5,1.1
		v8.6h-3V126.4z"/>
	<path class="st2" d="M515.6,132.5c0-1,0.2-1.9,0.5-2.7c0.4-0.8,0.8-1.5,1.4-2c0.6-0.5,1.3-1,2.1-1.3c0.8-0.3,1.6-0.4,2.5-0.4
		c0.8,0,1.6,0.1,2.2,0.4s1.2,0.6,1.6,1l-1.5,1.8c-0.4-0.3-0.7-0.5-1.1-0.7c-0.4-0.2-0.7-0.2-1.1-0.2c-1.1,0-1.9,0.4-2.6,1.1
		c-0.7,0.7-1,1.7-1,3c0,1.2,0.3,2.2,1,3c0.6,0.7,1.5,1.1,2.5,1.1c0.5,0,1-0.1,1.5-0.3c0.5-0.2,0.9-0.5,1.2-0.7l1.3,1.8
		c-0.6,0.5-1.3,0.9-2,1.2c-0.7,0.3-1.5,0.4-2.2,0.4c-0.9,0-1.7-0.1-2.5-0.4s-1.4-0.7-2-1.2s-1-1.2-1.3-2
		C515.7,134.4,515.6,133.5,515.6,132.5z"/>
	<path class="st2" d="M527.2,132.5c0-1,0.2-1.9,0.5-2.7c0.3-0.8,0.8-1.5,1.3-2c0.6-0.5,1.2-1,1.9-1.3c0.7-0.3,1.5-0.5,2.2-0.5
		c0.9,0,1.7,0.1,2.3,0.4c0.7,0.3,1.2,0.7,1.7,1.2c0.5,0.5,0.8,1.1,1,1.9c0.2,0.7,0.3,1.5,0.3,2.4c0,0.6,0,1-0.1,1.4h-8.3
		c0.1,1.1,0.6,2,1.2,2.6c0.7,0.6,1.5,0.9,2.6,0.9c0.6,0,1.1-0.1,1.6-0.2c0.5-0.2,1-0.4,1.4-0.7l1,1.8c-0.6,0.4-1.3,0.7-2.1,0.9
		c-0.8,0.2-1.6,0.4-2.4,0.4c-0.9,0-1.7-0.1-2.5-0.4c-0.8-0.3-1.5-0.7-2-1.3c-0.6-0.6-1-1.2-1.4-2
		C527.3,134.4,527.2,133.5,527.2,132.5z M535.9,131.4c0-1-0.2-1.8-0.6-2.3c-0.4-0.6-1.1-0.8-2-0.8c-0.8,0-1.5,0.3-2,0.8
		s-0.9,1.3-1.1,2.3H535.9z"/>
	<path class="st2" d="M541.2,137c0-0.6,0.2-1,0.6-1.4s0.9-0.6,1.4-0.6s1,0.2,1.4,0.6s0.6,0.8,0.6,1.4c0,0.6-0.2,1-0.6,1.4
		s-0.8,0.5-1.4,0.5s-1-0.2-1.4-0.5S541.2,137.6,541.2,137z"/>
	<path class="st2" d="M548.5,137c0-0.6,0.2-1,0.6-1.4s0.9-0.6,1.4-0.6s1,0.2,1.4,0.6s0.6,0.8,0.6,1.4c0,0.6-0.2,1-0.6,1.4
		s-0.8,0.5-1.4,0.5s-1-0.2-1.4-0.5S548.5,137.6,548.5,137z"/>
	<path class="st2" d="M555.8,137c0-0.6,0.2-1,0.6-1.4s0.9-0.6,1.4-0.6s1,0.2,1.4,0.6s0.6,0.8,0.6,1.4c0,0.6-0.2,1-0.6,1.4
		s-0.8,0.5-1.4,0.5s-1-0.2-1.4-0.5S555.8,137.6,555.8,137z"/>
	<path class="st2" d="M560.6,124.3l-0.1-2.8h3.1l-0.1,2.8l-0.6,4.6h-1.7L560.6,124.3z M566.1,124.3l-0.1-2.8h3.1l-0.1,2.8l-0.6,4.6
		h-1.7L566.1,124.3z"/>
	<path class="st2" d="M583.3,126.4h3v7.3c0,1,0.2,1.7,0.5,2.2c0.3,0.4,0.8,0.6,1.5,0.6c0.6,0,1.1-0.1,1.5-0.4
		c0.4-0.3,0.9-0.7,1.4-1.3v-8.4h3v12.3h-2.5l-0.2-1.8h-0.1c-0.6,0.6-1.2,1.1-1.8,1.5c-0.7,0.4-1.4,0.6-2.3,0.6c-1.4,0-2.4-0.4-3-1.3
		c-0.6-0.8-1-2-1-3.6V126.4z"/>
	<path class="st2" d="M601.3,139.6v3.9h-3v-17.1h2.5l0.2,1.3h0.1c0.5-0.4,1.2-0.8,1.8-1.1c0.7-0.3,1.4-0.5,2.1-0.5
		c0.8,0,1.5,0.1,2.2,0.4c0.6,0.3,1.2,0.7,1.6,1.3s0.8,1.2,1,2s0.3,1.6,0.3,2.6c0,1.1-0.2,2-0.5,2.8c-0.3,0.8-0.7,1.5-1.2,2.1
		c-0.5,0.6-1.1,1-1.8,1.3c-0.7,0.3-1.4,0.4-2.1,0.4c-0.6,0-1.1-0.1-1.7-0.3c-0.6-0.2-1.1-0.6-1.6-1L601.3,139.6z M601.3,135.5
		c0.5,0.4,0.9,0.6,1.4,0.8c0.4,0.1,0.9,0.2,1.2,0.2c0.9,0,1.6-0.4,2.2-1.1c0.6-0.7,0.9-1.8,0.9-3.2c0-1.2-0.2-2.2-0.7-2.9
		s-1.2-1-2.1-1c-0.9,0-1.9,0.5-2.9,1.4V135.5z"/>
	<path class="st2" d="M612.4,132.5c0-1,0.2-1.9,0.5-2.7c0.3-0.8,0.7-1.5,1.2-2c0.5-0.5,1.1-1,1.8-1.3s1.3-0.5,2.1-0.5
		c0.7,0,1.4,0.1,1.9,0.4c0.5,0.2,1,0.6,1.5,1l-0.1-2V121h3v17.6h-2.5l-0.2-1.3h-0.1c-0.5,0.5-1,0.8-1.7,1.2c-0.6,0.3-1.3,0.5-2,0.5
		c-1.6,0-2.9-0.6-3.9-1.7S612.4,134.6,612.4,132.5z M615.5,132.5c0,1.3,0.3,2.3,0.8,3c0.5,0.7,1.2,1,2.2,1c1,0,1.9-0.5,2.7-1.4v-5.7
		c-0.5-0.4-0.9-0.7-1.3-0.8c-0.4-0.1-0.9-0.2-1.3-0.2c-0.8,0-1.6,0.4-2.1,1.1C615.8,130.2,615.5,131.2,615.5,132.5z"/>
	<path class="st2" d="M627.6,135.4c0-1.3,0.6-2.3,1.8-3.1c1.2-0.7,3.2-1.2,5.8-1.5c0-0.3,0-0.6-0.1-0.9c-0.1-0.3-0.2-0.5-0.4-0.8
		s-0.4-0.4-0.7-0.5c-0.3-0.1-0.7-0.2-1.1-0.2c-0.7,0-1.3,0.1-1.9,0.4s-1.2,0.5-1.8,0.9l-1.1-1.9c0.7-0.4,1.5-0.8,2.4-1.1
		c0.9-0.3,1.9-0.5,2.9-0.5c1.6,0,2.9,0.5,3.7,1.4c0.8,0.9,1.2,2.2,1.2,3.9v7.3h-2.5l-0.2-1.4h-0.1c-0.6,0.5-1.2,0.9-1.9,1.2
		c-0.7,0.3-1.4,0.5-2.2,0.5c-1.1,0-2.1-0.3-2.8-1C627.9,137.3,627.6,136.4,627.6,135.4z M630.5,135.1c0,0.5,0.2,0.9,0.5,1.2
		c0.3,0.2,0.8,0.4,1.3,0.4c0.5,0,1-0.1,1.5-0.3s0.9-0.6,1.4-1v-2.8c-0.9,0.1-1.6,0.2-2.2,0.4s-1.1,0.4-1.4,0.6s-0.6,0.4-0.8,0.7
		C630.6,134.5,630.5,134.8,630.5,135.1z"/>
	<path class="st2" d="M642.4,128.6h-1.9v-2.1l2-0.1l0.4-3.4h2.5v3.4h3.3v2.3h-3.3v5.9c0,1.4,0.6,2.1,1.8,2.1c0.2,0,0.5,0,0.7-0.1
		c0.2,0,0.5-0.1,0.6-0.2l0.5,2.1c-0.4,0.1-0.8,0.2-1.2,0.3c-0.5,0.1-0.9,0.1-1.4,0.1c-0.8,0-1.4-0.1-1.9-0.3
		c-0.5-0.2-0.9-0.5-1.3-0.9c-0.3-0.4-0.6-0.9-0.7-1.4c-0.2-0.5-0.2-1.1-0.2-1.8V128.6z"/>
	<path class="st2" d="M650.4,132.5c0-1,0.2-1.9,0.5-2.7c0.3-0.8,0.8-1.5,1.3-2c0.6-0.5,1.2-1,1.9-1.3c0.7-0.3,1.5-0.5,2.2-0.5
		c0.9,0,1.7,0.1,2.3,0.4c0.7,0.3,1.2,0.7,1.7,1.2c0.5,0.5,0.8,1.1,1,1.9c0.2,0.7,0.3,1.5,0.3,2.4c0,0.6,0,1-0.1,1.4h-8.3
		c0.1,1.1,0.6,2,1.2,2.6c0.7,0.6,1.5,0.9,2.6,0.9c0.6,0,1.1-0.1,1.6-0.2c0.5-0.2,1-0.4,1.4-0.7l1,1.8c-0.6,0.4-1.3,0.7-2.1,0.9
		c-0.8,0.2-1.6,0.4-2.4,0.4c-0.9,0-1.7-0.1-2.5-0.4c-0.8-0.3-1.5-0.7-2-1.3c-0.6-0.6-1-1.2-1.4-2
		C650.6,134.4,650.4,133.5,650.4,132.5z M659.1,131.4c0-1-0.2-1.8-0.6-2.3c-0.4-0.6-1.1-0.8-2-0.8c-0.8,0-1.5,0.3-2,0.8
		s-0.9,1.3-1.1,2.3H659.1z"/>
	<path class="st2" d="M663.9,132.5c0-1,0.2-1.9,0.5-2.7c0.3-0.8,0.7-1.5,1.2-2c0.5-0.5,1.1-1,1.8-1.3s1.3-0.5,2.1-0.5
		c0.7,0,1.4,0.1,1.9,0.4c0.5,0.2,1,0.6,1.5,1l-0.1-2V121h3v17.6h-2.5l-0.2-1.3h-0.1c-0.5,0.5-1,0.8-1.7,1.2c-0.6,0.3-1.3,0.5-2,0.5
		c-1.6,0-2.9-0.6-3.9-1.7S663.9,134.6,663.9,132.5z M667.1,132.5c0,1.3,0.3,2.3,0.8,3c0.5,0.7,1.2,1,2.2,1c1,0,1.9-0.5,2.7-1.4v-5.7
		c-0.5-0.4-0.9-0.7-1.3-0.8c-0.4-0.1-0.9-0.2-1.3-0.2c-0.8,0-1.6,0.4-2.1,1.1C667.4,130.2,667.1,131.2,667.1,132.5z"/>
	<path class="st2" d="M679.4,137c0-0.6,0.2-1,0.6-1.4s0.9-0.6,1.4-0.6s1,0.2,1.4,0.6s0.6,0.8,0.6,1.4c0,0.6-0.2,1-0.6,1.4
		s-0.8,0.5-1.4,0.5s-1-0.2-1.4-0.5S679.4,137.6,679.4,137z"/>
</g>
</svg>
